<svg width="0" height="0" class="hidden">
    <symbol id="briefcase" xmlns="http://www.w3.org/2000/svg" viewBox="0 0 490 490" >
        <g>
            <path d="M45.932,469.348h398.136c25.328,0,45.932-20.603,45.932-45.932V146.965c0-25.328-20.603-45.932-45.932-45.932h-88.425
                V66.584c0-25.328-20.603-45.932-45.932-45.932H180.289c-25.328,0-45.932,20.604-45.932,45.932v34.449H45.932
                C20.604,101.033,0,121.636,0,146.965v276.451C0,448.745,20.604,469.348,45.932,469.348z M444.068,438.727H45.932
                c-8.448,0-15.311-6.863-15.311-15.31V249.25h58.94v29.343h30.621V249.25h249.635v29.343h30.621V249.25h58.94v174.166
                C459.379,431.864,452.516,438.727,444.068,438.727z M164.978,66.584c0-8.44,6.863-15.311,15.311-15.311h129.423
                c8.448,0,15.311,6.87,15.311,15.311v34.449H164.978V66.584z M45.932,131.654h398.136c8.448,0,15.311,6.87,15.311,15.311v71.664
                h-58.94v-29.335h-30.621v29.335H120.183v-29.335H89.561v29.335h-58.94v-71.664C30.621,138.525,37.484,131.654,45.932,131.654z"/>
        </g>
    </symbol>

  
    <symbol  viewBox="0 -20 130 130" id="tick" xmlns="http://www.w3.org/2000/svg">
        <path style="fill: #fff;" d="M34.7162 81.5027C36.3213 79.9761 37.2031 79.2039 38.0103 78.3599C63.8892 51.3046 92.2309 26.9469 120.74 2.77407C121.817 1.86111 122.921 0.696462 124.196 0.3701C125.733 -0.0238104 128.241 -0.282655 128.928 0.552804C129.852 1.67765 130.015 4.12286 129.452 5.60109C128.782 7.35947 127.15 8.86542 125.669 10.1822C116.833 18.0391 107.749 25.6258 99.0678 33.6462C80.9213 50.4165 62.8904 67.3116 44.9751 84.3312C37.125 91.7736 34.1038 92.075 26.8803 84.1228C22.1253 78.8861 7.77509 61.237 3.38035 55.6767C2.75974 54.8123 2.20692 53.9011 1.72689 52.9513C0.732118 51.1915 0.0876263 49.254 2.05727 47.8895C4.25215 46.3708 5.81043 47.9557 7.11073 49.606C8.42738 51.2769 9.55004 53.1127 10.9598 54.6962C15.336 59.6122 29.9896 76.32 34.7162 81.5027Z" fill="black"/>
    </symbol>
</svg>